<?xml version="1.0" standalone="no"?>
<!DOCTYPE svg PUBLIC "-//W3C//DTD SVG 20010904//EN"
 "http://www.w3.org/TR/2001/REC-SVG-20010904/DTD/svg10.dtd">
<svg version="1.0" xmlns="http://www.w3.org/2000/svg"
 width="998.000000pt" height="998.000000pt" viewBox="0 0 998.000000 998.000000"
 preserveAspectRatio="xMidYMid meet">
<metadata>
Created by potrace 1.16, written by Peter Selinger 2001-2019
</metadata>
<g transform="translate(0.000000,998.000000) scale(0.100000,-0.100000)"
fill="#000000" stroke="none">
<path d="M4620 9889 c-473 -36 -983 -153 -1425 -326 -166 -65 -495 -224 -650
-313 -373 -214 -706 -470 -1025 -790 -412 -411 -697 -811 -951 -1335 -328
-677 -489 -1379 -489 -2135 0 -756 161 -1458 489 -2135 254 -524 539 -924 951
-1335 411 -412 811 -697 1335 -951 677 -328 1379 -489 2135 -489 756 0 1458
161 2135 489 524 254 924 539 1335 951 412 411 697 811 951 1335 328 677 489
1379 489 2135 0 756 -161 1458 -489 2135 -254 524 -539 924 -951 1335 -411
412 -811 697 -1335 951 -569 276 -1153 432 -1790 479 -163 12 -549 11 -715 -1z
m2348 -1684 c294 -72 549 -230 838 -519 122 -123 178 -187 233 -270 173 -260
251 -498 251 -760 0 -138 -12 -213 -52 -340 -101 -320 -359 -637 -698 -858
-349 -229 -779 -354 -1325 -388 -93 -6 -222 -17 -285 -26 -144 -19 -516 -81
-561 -94 -24 -7 -80 -56 -186 -162 -84 -84 -153 -157 -153 -163 0 -10 284
-295 422 -423 60 -56 71 -62 108 -62 40 0 48 5 137 92 94 93 114 126 105 178
-3 16 -91 112 -244 266 l-240 241 44 6 c231 32 1022 33 1313 3 313 -33 647
-103 845 -176 118 -43 271 -119 362 -180 103 -69 261 -235 315 -331 165 -294
157 -645 -22 -925 -51 -80 -166 -196 -245 -249 -241 -160 -546 -188 -855 -79
-148 52 -140 50 -130 28 79 -183 109 -338 102 -524 -6 -160 -21 -219 -89 -359
-45 -94 -60 -115 -152 -206 -197 -196 -398 -274 -670 -262 -137 6 -229 28
-336 81 -322 159 -517 447 -654 966 l-33 125 -8 -69 c-13 -115 1 -447 24 -582
52 -304 153 -593 303 -860 46 -83 62 -121 66 -160 4 -49 2 -54 -35 -91 -50
-50 -110 -79 -321 -158 -153 -57 -168 -61 -174 -44 -11 30 -65 312 -87 459
-61 407 -82 833 -55 1120 6 70 -4 57 -45 -55 -177 -479 -511 -747 -931 -747
-339 0 -637 182 -780 477 -68 139 -81 195 -87 365 -5 163 11 266 66 425 16 47
28 85 27 85 -2 0 -28 -11 -57 -24 -434 -192 -879 -111 -1136 207 -127 157
-189 317 -199 517 -14 267 72 484 271 686 154 156 324 256 595 349 429 146
913 208 1635 208 337 0 376 1 340 14 -110 38 -491 94 -833 123 -374 31 -574
68 -815 149 -312 105 -517 230 -738 451 -214 213 -337 398 -411 614 -47 140
-58 209 -58 366 1 372 194 748 576 1120 243 236 509 383 789 435 125 24 378
17 488 -13 253 -69 447 -190 677 -421 217 -219 344 -419 461 -729 99 -261 142
-495 179 -977 23 -295 91 -707 123 -743 16 -17 23 -19 29 -10 19 30 49 155 77
323 37 219 45 293 71 596 40 471 107 743 261 1054 99 201 182 318 334 470 257
258 523 411 799 460 117 21 303 12 434 -20z M3105 7685 c-80 -40 -127 -135
-106 -215 41 -156 239 -203 334 -79 99 130 12 309 -150 309 -26 0 -61 -7 -78
-15z M6665 7673 c-76 -40 -109 -99 -103 -184 7 -97 74 -168 167 -177 67 -6
112 12 160 63 114 124 26 316 -145 315 -27 -1 -62 -8 -79 -17z M3755 7441
c-92 -57 -127 -156 -86 -246 65 -144 271 -152 342 -13 31 62 24 154 -17 204
-16 20 -45 45 -64 55 -46 25 -135 25 -175 0z M6069 7410 c-76 -22 -132 -101
-132 -184 0 -74 40 -138 106 -173 37 -19 127 -19 165 1 40 21 87 77 102 121
46 138 -98 279 -241 235z M2699 7280 c-66 -35 -109 -106 -109 -180 0 -40 41
-111 83 -144 31 -25 49 -31 100 -33 76 -5 126 20 171 84 25 36 29 52 29 103 0
51 -4 67 -29 103 -58 82 -163 111 -245 67z M7075 7274 c-79 -43 -122 -118
-113 -199 15 -133 168 -208 284 -140 162 95 103 341 -84 352 -39 2 -66 -2 -87
-13z M3385 7055 c-82 -29 -143 -128 -129 -206 29 -156 215 -218 324 -109 89
89 72 233 -34 295 -54 32 -111 39 -161 20z M6419 6992 c-93 -60 -118 -188 -52
-270 66 -82 150 -102 239 -57 65 33 97 80 102 154 5 70 -20 126 -74 168 -30
22 -49 28 -103 31 -59 3 -71 0 -112 -26z M2305 6881 c-144 -65 -152 -263 -14
-340 58 -33 151 -27 203 12 89 69 103 201 28 280 -61 65 -141 83 -217 48z
M7485 6876 c-71 -27 -125 -107 -125 -186 1 -63 76 -161 136 -176 14 -4 50 -4
80 -2 171 14 227 244 82 344 -47 33 -116 40 -173 20z M3995 6801 c-46 -20
-102 -79 -111 -117 -14 -54 1 -132 32 -171 109 -134 323 -77 341 92 17 145
-131 256 -262 196z M5782 6789 c-116 -58 -143 -202 -56 -299 40 -44 86 -63
150 -62 54 1 92 20 132 66 84 95 54 239 -61 295 -55 27 -111 27 -165 0z M2975
6656 c-123 -54 -154 -219 -59 -311 124 -118 324 -34 324 135 0 135 -143 230
-265 176z M6829 6607 c-62 -33 -104 -102 -103 -171 1 -57 13 -87 53 -129 39
-43 74 -57 136 -57 65 0 100 16 142 64 62 70 67 160 13 234 -56 77 -158 102
-241 59z M3605 6408 c-40 -14 -94 -65 -111 -105 -17 -39 -18 -111 -3 -150 12
-31 54 -79 84 -95 132 -72 296 36 282 185 -11 122 -138 205 -252 165z M6206
6396 c-78 -29 -126 -97 -126 -181 0 -60 19 -103 63 -142 97 -85 241 -55 297
62 72 148 -80 318 -234 261z M2598 6269 c-48 -14 -113 -84 -128 -139 -19 -69
4 -135 64 -188 168 -148 408 75 276 256 -46 64 -133 93 -212 71z M7235 6214
c-68 -35 -115 -106 -115 -174 0 -70 59 -155 123 -179 47 -18 118 -13 162 12
102 58 129 192 58 285 -48 64 -160 91 -228 56z M3205 6005 c-52 -19 -111 -82
-125 -135 -26 -96 35 -202 133 -229 183 -52 320 163 195 305 -56 63 -131 86
-203 59z M6623 6001 c-78 -20 -134 -86 -141 -166 -2 -29 1 -69 7 -88 21 -63
113 -127 181 -127 71 0 149 56 176 125 54 142 -77 292 -223 256z M5403 5945
c-29 -20 -39 -52 -63 -194 -12 -69 -34 -187 -50 -263 -17 -76 -30 -165 -30
-198 0 -53 3 -61 25 -76 32 -21 102 -15 235 20 52 14 160 39 240 55 161 32
226 54 240 82 6 10 10 20 10 22 0 2 -55 41 -123 85 -149 97 -230 177 -340 336
-94 136 -113 153 -144 131z M4498 5933 c-8 -10 -48 -67 -88 -128 -89 -134
-154 -199 -285 -290 -154 -106 -176 -125 -173 -148 6 -40 48 -56 238 -92 102
-18 228 -43 280 -54 122 -26 191 -27 213 -3 25 27 21 111 -9 222 -14 52 -38
160 -54 240 -37 183 -45 212 -71 244 -24 31 -31 32 -51 9z M4458 4753 c-88
-87 -197 -198 -241 -247 -77 -83 -82 -92 -82 -133 0 -42 4 -47 101 -143 95
-94 103 -100 142 -100 38 0 50 7 119 69 43 38 157 148 253 245 l175 176 -145
145 c-80 80 -149 145 -154 145 -4 0 -80 -71 -168 -157z"/>
</g>
</svg>
