<?xml version="1.0" standalone="no"?>
<!DOCTYPE svg PUBLIC "-//W3C//DTD SVG 20010904//EN"
 "http://www.w3.org/TR/2001/REC-SVG-20010904/DTD/svg10.dtd">
<svg version="1.0" xmlns="http://www.w3.org/2000/svg"
 width="3721.000000pt" height="897.000000pt" viewBox="0 0 3721.000000 897.000000"
 preserveAspectRatio="xMidYMid meet">
<metadata>
Created by potrace 1.16, written by Peter Selinger 2001-2019
</metadata>
<g transform="translate(0.000000,897.000000) scale(0.100000,-0.100000)"
fill="#000000" stroke="none">
<path d="M5900 8835 c-321 -47 -637 -217 -929 -499 -313 -303 -497 -620 -625
-1078 -69 -244 -98 -428 -126 -788 -24 -302 -40 -436 -85 -705 -31 -185 -79
-375 -95 -375 -20 0 -44 47 -56 112 -54 280 -109 676 -119 868 -22 399 -71
678 -175 990 -243 731 -777 1288 -1389 1447 -99 26 -119 28 -306 28 -218 0
-287 -10 -460 -67 -181 -59 -420 -193 -585 -328 -91 -74 -312 -299 -393 -400
-206 -256 -340 -515 -408 -790 -21 -83 -24 -119 -24 -285 0 -175 3 -198 27
-291 67 -250 154 -418 334 -644 289 -362 618 -592 1064 -743 326 -110 477
-135 1212 -197 199 -17 639 -91 730 -122 31 -11 -37 -13 -425 -13 -434 0 -638
-9 -887 -36 -565 -61 -994 -170 -1325 -337 -424 -212 -669 -536 -716 -946 -22
-183 16 -379 106 -561 159 -322 448 -524 810 -566 191 -22 432 21 654 116 l79
33 -34 -95 c-65 -181 -78 -257 -79 -463 0 -201 11 -267 66 -403 99 -245 308
-458 547 -558 251 -104 529 -111 778 -18 331 123 592 418 746 845 l33 91 0
-396 c0 -415 6 -511 51 -841 34 -251 113 -682 127 -696 3 -4 266 91 375 135
131 53 217 112 249 174 21 41 10 97 -31 166 -147 247 -274 551 -347 831 -59
226 -80 382 -86 646 -3 133 -2 273 2 310 l7 69 33 -131 c103 -417 250 -712
459 -920 209 -209 434 -314 708 -331 472 -28 912 271 1047 711 50 163 61 317
36 489 -23 150 -48 235 -122 414 -2 6 41 -6 96 -27 352 -137 673 -133 966 11
373 184 605 615 557 1031 -32 273 -134 472 -345 674 -78 74 -147 129 -217 173
-353 218 -881 353 -1570 402 -313 22 -1017 13 -1340 -17 -50 -5 -62 -3 -54 6
17 17 273 66 599 114 207 30 235 33 450 46 530 32 922 125 1300 310 595 290
1015 777 1131 1310 28 127 26 399 -4 537 -56 260 -188 524 -378 759 -86 106
-283 299 -405 397 -410 330 -850 480 -1239 422z m-3916 -637 c55 -17 131 -91
145 -143 23 -84 7 -157 -47 -217 -91 -101 -229 -105 -322 -9 -93 95 -93 218 0
311 65 65 137 84 224 58z m4243 -26 c136 -70 162 -256 50 -359 -53 -49 -103
-67 -173 -61 -192 16 -273 252 -132 386 65 62 172 76 255 34z m-3417 -280 c26
-16 57 -47 75 -76 56 -91 35 -210 -49 -283 -99 -88 -258 -65 -333 48 -35 53
-43 140 -18 204 20 53 90 119 143 134 56 15 131 4 182 -27z m2663 -35 c85 -36
136 -113 137 -205 1 -196 -220 -298 -366 -169 -57 50 -74 88 -74 165 0 95 38
159 120 203 42 22 136 25 183 6z m-3923 -150 c55 -28 106 -99 116 -162 13 -91
-42 -191 -130 -237 -57 -29 -158 -23 -215 15 -60 40 -94 97 -99 167 -5 70 10
120 51 166 72 83 176 102 277 51z m5145 -8 c80 -38 125 -110 125 -201 -1 -69
-27 -125 -80 -171 -120 -102 -304 -49 -355 103 -36 107 20 228 125 274 51 22
132 20 185 -5z m-4385 -260 c80 -36 125 -96 136 -183 13 -95 -57 -205 -150
-236 -141 -46 -296 65 -296 211 0 162 167 273 310 208z m3646 -57 c135 -69
164 -248 57 -356 -167 -169 -447 10 -368 235 20 56 57 95 120 126 59 29 129
27 191 -5z m-4908 -138 c83 -34 142 -121 142 -209 0 -131 -121 -239 -248 -221
-105 14 -179 86 -196 192 -27 162 150 302 302 238z m6119 -18 c149 -70 174
-269 48 -374 -101 -83 -253 -62 -326 45 -46 66 -52 152 -15 226 55 113 178
156 293 103z m-4112 -83 c80 -40 125 -113 125 -200 -1 -134 -91 -223 -225
-223 -124 0 -215 93 -215 219 0 72 9 98 51 145 70 80 175 103 264 59z m2113
-9 c138 -57 178 -248 74 -357 -139 -147 -386 -48 -386 153 0 88 54 169 134
204 46 20 131 20 178 0z m-3307 -171 c140 -72 161 -261 40 -365 -146 -125
-365 -25 -365 167 0 173 169 276 325 198z m4530 -34 c209 -63 198 -373 -15
-430 -139 -38 -276 70 -276 217 0 156 140 258 291 213z m-3830 -250 c55 -19
95 -55 123 -111 76 -152 -29 -322 -199 -322 -194 0 -296 224 -167 366 63 70
156 96 243 67z m3061 -11 c122 -36 192 -189 139 -303 -70 -152 -261 -181 -373
-57 -150 166 18 425 234 360z m-4232 -166 c14 -5 44 -30 67 -54 129 -140 29
-368 -162 -368 -132 0 -224 90 -225 218 0 168 158 270 320 204z m5483 -45 c87
-37 136 -113 137 -210 1 -194 -225 -295 -367 -164 -55 50 -75 96 -76 167 0 88
52 169 133 204 44 19 130 20 173 3z m-4762 -262 c32 -17 97 -88 109 -121 17
-44 12 -141 -10 -183 -54 -106 -186 -151 -295 -100 -81 38 -125 110 -125 204
0 133 117 236 250 219 25 -3 56 -12 71 -19z m4017 -14 c79 -41 122 -113 122
-203 -1 -126 -94 -218 -220 -218 -200 0 -301 237 -161 377 71 71 173 88 259
44z m-1541 -46 c11 -8 63 -76 114 -152 133 -195 212 -275 389 -391 80 -52 148
-100 152 -105 11 -18 -9 -43 -47 -61 -47 -23 -122 -42 -262 -67 -63 -11 -149
-29 -189 -40 -41 -10 -108 -28 -151 -39 -108 -28 -177 -27 -208 5 -35 34 -33
59 25 344 27 135 56 291 65 345 17 104 34 148 62 165 23 14 25 13 50 -4z
m-1067 -17 c26 -29 52 -112 80 -263 12 -66 40 -188 61 -271 44 -170 51 -274
22 -306 -27 -30 -118 -23 -355 27 -118 25 -262 52 -319 61 -151 22 -206 54
-182 106 6 14 78 70 163 128 191 131 268 208 378 375 119 183 117 180 152 143z
m269 -1368 c94 -94 171 -174 171 -178 0 -5 -127 -134 -282 -289 -258 -255
-287 -281 -324 -287 -63 -11 -98 10 -211 126 -101 103 -103 106 -103 152 0 26
5 57 11 69 8 17 558 577 565 577 1 0 79 -77 173 -170z m928 -112 c300 -303
303 -307 282 -383 -13 -43 -205 -233 -248 -245 -72 -20 -79 -15 -381 286
l-285 284 170 170 c93 93 172 170 175 170 3 0 132 -127 287 -282z M30845 7189
c-121 -18 -215 -54 -289 -112 -100 -79 -319 -419 -693 -1072 -844 -1477 -1436
-2631 -1825 -3560 -81 -193 -90 -222 -72 -240 9 -8 21 -15 29 -15 7 0 37 -11
67 -25 77 -36 125 -33 222 15 62 30 88 49 111 82 132 190 622 759 1109 1288
327 354 756 773 774 756 2 -3 -56 -110 -129 -238 -173 -302 -409 -771 -486
-968 -113 -286 -146 -442 -125 -596 34 -256 209 -384 522 -383 230 0 432 65
646 209 l76 51 16 -23 c32 -48 116 -119 175 -148 126 -61 252 -74 419 -45 298
52 685 283 1000 597 407 406 711 838 868 1234 127 320 118 547 -28 663 -73 57
-116 71 -229 71 -92 0 -103 2 -103 18 0 30 -72 91 -135 115 -51 18 -78 22
-175 21 -178 -2 -300 -37 -511 -145 -373 -192 -824 -610 -1060 -985 -68 -107
-167 -309 -218 -442 -37 -98 -88 -290 -97 -368 -6 -50 -11 -59 -58 -101 -88
-79 -208 -165 -284 -201 -159 -76 -252 -44 -252 86 0 100 122 376 519 1172
341 683 349 704 316 815 -35 121 -135 170 -352 170 l-121 0 -114 -58 c-323
-164 -764 -550 -1140 -995 -43 -51 -78 -90 -78 -86 0 11 177 349 308 589 336
616 732 1273 1335 2217 198 309 269 429 277 465 11 46 6 127 -8 149 -22 34
-85 41 -207 23z m1751 -2817 c17 -47 53 -72 103 -72 61 0 77 -72 40 -182 -90
-269 -433 -765 -736 -1065 -161 -160 -376 -311 -536 -379 -80 -34 -186 -44
-222 -20 -56 37 -69 108 -36 196 15 40 20 79 21 143 0 77 4 98 34 170 132 317
451 736 736 967 170 137 339 242 484 301 l91 36 3 -26 c1 -14 10 -45 18 -69z
M14655 7029 c-382 -26 -741 -192 -1140 -528 -130 -110 -390 -366 -522 -516
-145 -163 -389 -467 -523 -650 -114 -155 -418 -610 -640 -955 -359 -561 -541
-819 -776 -1096 l-20 -25 -215 40 c-340 62 -379 66 -674 66 -207 0 -296 -5
-382 -18 -565 -88 -825 -307 -798 -672 17 -245 88 -366 269 -457 155 -78 307
-108 569 -110 207 -2 325 10 509 48 312 65 631 219 882 426 l80 65 45 -12 c25
-7 244 -70 486 -140 515 -148 722 -201 975 -249 615 -116 1219 -129 1455 -30
27 11 32 9 70 -22 195 -159 470 -102 810 169 170 136 414 387 619 637 102 124
103 125 71 60 -135 -268 -145 -613 -24 -767 37 -46 125 -106 197 -133 247 -93
531 -3 852 269 52 44 97 81 100 81 3 0 13 -13 23 -28 9 -16 47 -58 84 -93 279
-262 615 -328 1096 -215 187 44 548 170 677 236 l40 20 -10 -26 c-8 -21 -6
-33 11 -63 29 -47 78 -99 109 -116 39 -20 268 -67 291 -60 15 5 85 138 272
516 138 280 254 506 257 502 4 -5 29 -51 56 -103 139 -274 346 -575 485 -706
56 -53 205 -157 274 -191 108 -55 311 -72 451 -39 40 9 120 41 180 70 l108 53
23 -28 c31 -36 113 -83 182 -103 90 -26 181 -21 293 18 219 75 419 227 780
593 122 124 152 150 136 118 -85 -167 -446 -837 -466 -865 -14 -19 -113 -123
-221 -230 -402 -399 -620 -717 -704 -1023 -26 -98 -31 -287 -8 -350 42 -120
169 -178 348 -157 120 13 167 41 303 179 132 132 198 226 369 523 l114 197
216 224 c324 338 661 656 1011 958 215 185 513 429 524 429 4 0 6 -15 6 -32 1
-51 42 -158 88 -225 117 -173 323 -281 629 -329 127 -20 548 -23 753 -5 606
53 1045 169 1502 396 287 142 496 290 666 470 98 103 149 176 202 288 54 112
71 183 77 312 6 129 -8 201 -62 310 -91 187 -241 326 -513 473 -270 147 -466
216 -1042 367 -508 134 -765 247 -820 360 -42 87 -19 146 103 268 250 250 673
527 1067 701 426 187 811 297 1163 332 l69 7 -47 -64 c-66 -89 -88 -141 -80
-189 8 -46 40 -84 64 -75 40 17 99 24 291 34 334 17 599 60 703 112 84 43 154
106 182 164 31 62 51 193 40 263 -22 149 -316 267 -762 303 -434 36 -1076 -70
-1615 -265 -449 -163 -960 -419 -1224 -614 -287 -211 -484 -437 -582 -668 -73
-173 -89 -389 -39 -540 68 -206 232 -362 524 -501 165 -79 388 -149 766 -242
760 -187 1058 -299 1138 -427 25 -41 24 -106 -1 -160 -31 -63 -171 -191 -311
-283 -406 -269 -996 -461 -1538 -501 -379 -28 -868 73 -977 202 -30 36 -30 55
-2 114 22 45 23 46 4 60 -11 8 -31 14 -45 14 -30 0 -135 -48 -197 -89 l-42
-29 -11 59 c-20 119 -61 162 -125 135 -18 -7 -131 -103 -252 -212 -283 -257
-718 -644 -909 -809 -82 -71 -178 -154 -213 -184 -76 -66 -75 -63 35 149 270
516 538 988 1105 1949 246 417 248 420 248 464 0 49 -65 120 -128 141 -66 21
-171 37 -201 29 -74 -17 -193 -150 -343 -383 -324 -504 -1150 -1358 -1561
-1614 -120 -75 -184 -73 -134 3 27 41 47 101 47 143 0 31 150 326 369 728 265
483 404 767 417 851 10 59 -18 119 -81 177 -64 58 -110 82 -161 82 -69 0 -119
-70 -304 -420 -51 -96 -132 -240 -180 -320 -48 -80 -126 -214 -174 -299 -48
-85 -158 -272 -244 -415 -153 -257 -215 -378 -247 -490 -15 -51 -22 -60 -79
-101 -34 -24 -91 -58 -127 -75 -247 -117 -497 110 -702 637 l-16 42 117 61
c456 238 1012 734 1199 1067 82 147 106 279 72 394 -17 56 -84 124 -135 138
-98 27 -212 5 -282 -54 -44 -39 -66 -85 -77 -163 -5 -36 -19 -71 -46 -111
-100 -150 -556 -535 -905 -764 -128 -84 -290 -174 -298 -166 -5 5 8 28 592
1069 593 1057 998 1785 1087 1955 86 163 94 203 49 249 -38 37 -79 34 -177
-15 -45 -23 -120 -55 -166 -70 -46 -16 -103 -40 -127 -54 -74 -43 -151 -149
-300 -412 -371 -652 -1385 -2490 -1697 -3078 l-165 -310 -83 -58 c-202 -140
-393 -230 -640 -301 -243 -70 -379 -90 -604 -91 -175 0 -194 2 -246 23 -162
65 -239 188 -239 379 0 216 81 437 238 648 78 106 302 333 422 429 108 86 333
237 413 278 141 71 319 115 353 87 34 -28 18 -69 -89 -229 -83 -125 -89 -140
-88 -204 2 -152 170 -222 336 -141 97 47 215 181 314 356 113 201 110 399 -8
517 -55 55 -169 115 -249 131 -127 26 -382 2 -576 -54 -380 -110 -751 -341
-1023 -635 -314 -341 -510 -737 -553 -1120 l-11 -105 -87 -88 c-160 -163 -326
-267 -423 -267 -40 0 -51 4 -73 31 -23 27 -26 40 -26 102 0 234 234 793 589
1405 106 183 220 387 254 452 59 114 60 119 49 156 -6 22 -21 54 -32 73 l-21
34 -102 -6 c-169 -9 -296 -54 -373 -133 -57 -59 -167 -224 -250 -374 -38 -69
-101 -168 -140 -220 -244 -329 -937 -1077 -1177 -1271 -147 -119 -232 -155
-257 -109 -40 76 150 494 597 1308 179 327 263 497 263 532 0 29 -46 101 -88
138 -35 31 -101 62 -132 62 -60 0 -104 -22 -165 -84 -79 -80 -159 -203 -364
-559 -92 -160 -201 -348 -241 -417 -108 -186 -301 -579 -347 -710 -22 -63 -53
-167 -68 -230 -16 -63 -30 -121 -32 -129 -3 -12 -32 -13 -171 -7 -353 14 -751
76 -1372 212 -252 56 -918 218 -926 226 -1 2 26 41 60 88 142 194 281 396 671
981 699 1046 949 1378 1340 1778 192 196 311 298 468 402 137 90 239 132 312
127 109 -7 86 -57 -120 -263 -215 -215 -501 -441 -677 -535 -71 -38 -82 -41
-90 -26 -14 26 -54 19 -81 -14 -53 -62 -46 -208 14 -301 46 -72 129 -143 183
-159 116 -32 240 2 441 123 505 303 954 787 1040 1122 39 153 8 315 -85 440
-97 131 -257 182 -515 164z m-4398 -4189 c81 -6 171 -14 198 -19 l50 -7 -70
-36 c-101 -51 -198 -84 -320 -107 -236 -46 -465 -9 -465 74 0 52 80 83 240 94
171 12 204 12 367 1z M35265 6445 l-89 -12 -59 -64 c-73 -80 -225 -281 -347
-461 l-92 -137 -62 -5 c-33 -3 -187 -10 -341 -17 -154 -6 -306 -15 -337 -19
-69 -11 -160 -53 -263 -122 -76 -50 -90 -67 -208 -250 -68 -104 30 -185 238
-195 71 -3 169 3 335 21 129 15 243 29 254 32 14 5 16 3 11 -7 -5 -8 -72 -117
-150 -244 -501 -812 -845 -1466 -976 -1857 -44 -132 -79 -317 -79 -411 2 -237
102 -414 283 -502 289 -139 548 -97 882 142 65 46 119 82 120 81 1 -2 13 -25
25 -51 27 -55 108 -136 166 -165 118 -60 294 -87 517 -79 218 7 385 44 617
134 425 166 675 352 791 588 50 103 68 201 51 282 -34 161 -136 277 -332 377
-151 77 -367 139 -805 231 -239 50 -275 64 -275 105 0 51 173 211 375 345 254
169 546 280 818 311 66 7 66 8 10 -86 -43 -71 -42 -93 5 -136 60 -56 88 -67
172 -67 83 1 163 24 264 75 149 75 240 159 277 257 27 70 38 248 19 305 -27
82 -109 141 -237 173 -106 25 -337 23 -488 -5 -289 -54 -585 -160 -909 -325
-291 -148 -511 -316 -647 -496 -160 -212 -208 -455 -123 -625 34 -67 74 -108
161 -162 116 -73 237 -111 743 -233 172 -42 284 -76 333 -103 135 -74 24 -207
-261 -314 -109 -41 -250 -74 -410 -94 -179 -23 -270 -25 -315 -6 -41 16 -96
71 -112 110 -11 26 -9 36 13 85 24 51 26 67 24 171 -2 152 -32 250 -78 250
-16 0 -119 -83 -294 -236 -168 -148 -239 -204 -362 -286 -132 -89 -211 -120
-318 -126 -76 -4 -88 -2 -112 18 -41 32 -51 83 -38 200 16 143 72 294 218 585
199 399 679 1251 944 1676 l91 146 256 22 c313 28 613 59 649 67 53 13 127 52
154 80 71 77 59 122 -67 259 -79 85 -105 107 -139 116 -41 12 -341 6 -441 -8
l-46 -6 132 209 c152 240 199 326 199 359 0 45 -39 75 -125 96 -89 21 -85 21
-210 4z"/>
</g>
</svg>
