<?xml version="1.0" standalone="no"?>
<!DOCTYPE svg PUBLIC "-//W3C//DTD SVG 20010904//EN"
 "http://www.w3.org/TR/2001/REC-SVG-20010904/DTD/svg10.dtd">
<svg version="1.0" xmlns="http://www.w3.org/2000/svg"
 width="5605pt" height="3259pt" viewBox="187 105 5605 3259"
 preserveAspectRatio="xMidYMid meet">
<metadata>
Created by potrace 1.16, written by Peter Selinger 2001-2019
</metadata>
<g transform="translate(0.000000,3375.000000) scale(0.100000,-0.100000)"
fill="#000000" stroke="none">
<path d="M34515 32293 c-96 -8 -298 -36 -385 -54 -134 -28 -205 -48 -430 -119
-138 -43 -471 -203 -662 -318 -358 -214 -805 -584 -1123 -928 -60 -65 -116
-125 -123 -133 -42 -44 -237 -298 -317 -412 -331 -474 -602 -1070 -777 -1709
-48 -174 -69 -257 -78 -295 -82 -384 -92 -434 -124 -635 -16 -98 -24 -156 -32
-225 -2 -22 -11 -94 -19 -160 -8 -66 -17 -156 -20 -200 -3 -44 -17 -208 -30
-365 -13 -157 -29 -359 -35 -450 -6 -91 -15 -196 -20 -235 -5 -38 -12 -95 -15
-125 -11 -122 -107 -728 -185 -1180 -15 -84 -60 -251 -96 -353 -20 -56 -38
-110 -41 -119 -10 -32 -32 -26 -75 20 -37 39 -47 58 -56 107 -79 420 -146 810
-168 970 -2 22 -13 96 -24 165 -57 375 -93 736 -110 1100 -5 107 -16 263 -25
345 -9 83 -20 195 -25 250 -5 55 -17 145 -25 200 -9 55 -20 132 -25 171 -8 63
-18 118 -50 279 -5 28 -17 86 -26 130 -122 622 -419 1429 -698 1898 -25 43
-46 81 -46 83 0 7 -91 151 -183 289 -402 602 -956 1140 -1553 1505 -165 102
-391 214 -574 285 -636 248 -1331 277 -2035 86 -574 -157 -1231 -538 -1721
-998 -545 -511 -931 -985 -1231 -1508 -186 -323 -358 -761 -425 -1080 -5 -27
-14 -68 -19 -90 -72 -332 -70 -843 7 -1165 44 -187 93 -349 158 -525 88 -237
321 -647 513 -901 589 -781 1300 -1353 2103 -1693 69 -29 139 -59 155 -66 91
-41 528 -189 665 -226 204 -55 273 -72 461 -113 275 -60 398 -82 584 -106 39
-5 140 -18 225 -30 85 -11 218 -25 295 -30 77 -5 208 -17 290 -25 83 -9 228
-20 324 -25 188 -11 555 -45 636 -59 28 -5 88 -15 135 -21 112 -15 376 -56
520 -81 63 -10 132 -21 153 -24 192 -22 707 -152 665 -167 -7 -3 -94 0 -193 5
-320 19 -1650 15 -2025 -6 -425 -24 -943 -68 -1200 -102 -63 -9 -135 -18 -160
-20 -25 -3 -88 -12 -140 -20 -52 -8 -117 -17 -145 -21 -27 -3 -97 -15 -155
-26 -58 -10 -130 -23 -160 -28 -30 -4 -104 -18 -165 -30 -1374 -268 -2367
-737 -2918 -1380 -45 -52 -84 -97 -87 -100 -18 -16 -106 -140 -167 -235 -111
-174 -224 -412 -278 -585 -142 -462 -152 -905 -30 -1365 22 -81 36 -126 90
-275 26 -72 129 -278 185 -370 257 -423 699 -799 1135 -965 579 -221 1153
-228 1810 -24 138 43 367 132 475 185 36 17 66 28 68 24 2 -4 -15 -52 -36
-106 -101 -255 -167 -495 -214 -779 -34 -207 -34 -650 0 -835 65 -353 159
-606 331 -885 260 -425 723 -799 1199 -969 157 -57 342 -105 462 -122 14 -1
57 -8 95 -13 212 -30 429 -23 740 24 75 12 260 63 360 100 55 20 109 39 120
43 45 13 260 125 361 187 109 67 233 158 334 246 65 56 329 339 396 424 150
194 333 514 457 800 43 100 163 420 173 460 4 17 13 39 21 50 13 18 14 17 9
-15 -31 -200 -43 -1371 -17 -1710 47 -625 88 -1011 157 -1460 58 -385 97 -599
190 -1050 25 -118 47 -228 51 -245 9 -48 21 -57 52 -41 32 16 394 156 404 156
10 0 347 125 447 166 400 164 577 316 588 505 6 95 -12 140 -130 339 -91 153
-255 474 -353 690 -294 650 -486 1309 -579 1990 -51 370 -70 957 -42 1318 20
253 27 281 45 185 21 -105 96 -397 145 -566 191 -647 466 -1209 780 -1597 91
-112 340 -358 432 -427 409 -306 715 -445 1149 -522 435 -77 869 -32 1290 136
742 295 1260 883 1456 1653 49 196 74 513 59 757 -23 361 -98 675 -252 1056
-57 140 -65 173 -36 149 23 -18 340 -139 460 -176 352 -107 587 -140 948 -134
400 7 688 75 1020 239 719 357 1192 1018 1315 1838 21 139 21 542 0 666 -68
402 -186 708 -394 1020 -100 151 -163 224 -343 405 -212 212 -248 243 -433
371 -103 71 -352 217 -465 271 -413 198 -797 333 -1270 448 -172 42 -194 47
-280 64 -41 9 -118 25 -170 36 -85 17 -317 57 -440 75 -25 4 -56 9 -70 11 -94
14 -245 34 -295 39 -33 3 -132 15 -220 26 -88 11 -223 24 -300 29 -77 5 -270
19 -430 31 -260 19 -372 21 -1085 21 -785 0 -953 -4 -1485 -41 -77 -6 -214
-15 -305 -21 -91 -6 -177 -13 -192 -16 -17 -3 -28 -1 -28 5 0 19 59 48 123 60
34 7 103 20 152 31 136 28 533 100 665 119 36 5 106 17 155 25 226 38 678 102
785 111 36 3 135 12 220 21 85 8 261 19 390 24 129 6 273 14 320 19 47 5 135
14 195 21 111 11 375 45 500 65 39 6 150 26 250 45 627 119 1301 344 1805 603
726 373 1277 820 1789 1452 121 150 296 414 404 612 209 381 338 779 389 1198
17 142 17 535 0 690 -36 317 -134 703 -237 930 -7 17 -25 59 -40 95 -125 298
-363 693 -602 999 -112 142 -480 524 -717 743 -143 132 -373 319 -511 418 -49
35 -106 75 -125 90 -131 97 -411 261 -615 360 -325 156 -524 227 -854 304
-254 60 -609 89 -846 69z m-9348 -1497 c92 -24 165 -68 239 -141 106 -104 154
-217 154 -363 0 -146 -43 -253 -147 -363 -203 -214 -537 -215 -748 -2 -70 72
-107 140 -136 250 -24 96 -24 131 1 227 27 107 63 169 145 251 72 73 143 116
234 140 62 18 194 18 258 1z m9766 -21 c252 -60 417 -265 417 -516 0 -285
-234 -519 -519 -519 -395 0 -646 420 -460 771 60 113 180 213 299 248 19 6 49
15 65 20 44 14 132 12 198 -4z m-7989 -630 c349 -74 528 -448 363 -760 -105
-196 -319 -300 -551 -266 -230 33 -420 250 -431 491 -12 250 149 462 402 530
83 23 128 24 217 5z m6351 -145 c356 -124 464 -590 197 -853 -112 -110 -227
-159 -372 -160 -148 -1 -258 47 -374 161 -258 255 -162 715 178 844 113 44
261 47 371 8z m-9231 -306 c326 -83 487 -432 342 -738 -36 -77 -140 -185 -217
-226 -171 -91 -391 -81 -546 26 -165 114 -257 325 -223 511 56 305 352 502
644 427z m12051 -49 c321 -128 441 -487 259 -771 -98 -154 -248 -234 -439
-234 -159 0 -253 38 -361 145 -293 289 -164 767 238 880 83 23 216 15 303 -20z
m-10218 -601 c96 -32 159 -70 225 -135 239 -234 194 -634 -91 -813 -231 -146
-547 -80 -703 147 -115 168 -126 383 -29 553 121 209 386 319 598 248z m8479
-128 c218 -79 346 -261 347 -491 0 -235 -133 -421 -360 -502 -72 -26 -259 -23
-331 5 -212 83 -344 266 -346 482 -1 54 5 116 13 145 84 297 395 463 677 361z
m-11356 -347 c174 -73 287 -212 326 -399 52 -249 -120 -521 -375 -592 -183
-51 -368 -1 -507 137 -261 260 -181 691 157 844 85 38 95 40 229 37 94 -3 125
-8 170 -27z m14193 -23 c463 -174 458 -823 -8 -986 -77 -27 -246 -31 -317 -7
-146 50 -260 149 -321 277 -93 198 -57 423 93 584 141 150 363 204 553 132z
m-9651 -170 c259 -56 440 -285 426 -541 -11 -188 -119 -356 -283 -439 -261
-132 -583 -23 -709 239 -37 76 -46 121 -46 226 0 257 163 458 415 512 89 20
115 20 197 3z m4947 -31 c121 -17 290 -142 353 -261 79 -147 79 -351 0 -498
-37 -71 -154 -185 -222 -218 -213 -102 -443 -65 -605 97 -253 253 -186 674
131 831 115 58 200 70 343 49z m-7728 -379 c425 -90 556 -644 217 -916 -257
-207 -643 -127 -789 162 -202 399 138 846 572 754z m10648 -126 c212 -63 357
-237 377 -451 18 -198 -73 -383 -239 -492 -94 -61 -138 -72 -277 -72 -179 0
-255 31 -372 149 -78 78 -121 163 -144 279 -16 81 -16 93 -1 169 41 207 188
369 384 423 74 20 195 18 272 -5z m-8947 -571 c185 -39 348 -200 393 -390 42
-179 -10 -353 -145 -490 -252 -252 -680 -178 -836 146 -36 77 -38 85 -42 201
-5 141 6 188 69 295 110 189 336 285 561 238z m7184 -44 c85 -29 142 -61 197
-114 344 -324 119 -901 -351 -901 -159 0 -262 42 -373 151 -113 112 -156 231
-146 411 5 88 9 106 45 181 115 237 385 354 628 272z m-9956 -346 c196 -45
357 -222 391 -431 40 -240 -112 -492 -346 -573 -84 -28 -217 -31 -308 -6 -221
60 -386 275 -387 502 0 62 34 189 67 252 62 117 213 232 336 256 60 12 194 12
247 0z m12853 -142 c358 -137 456 -598 182 -861 -110 -106 -211 -146 -365
-146 -161 0 -250 37 -370 154 -166 162 -199 432 -78 634 127 210 402 306 631
219z m-11168 -578 c155 -40 306 -180 359 -334 24 -68 32 -200 17 -276 -51
-257 -294 -437 -559 -414 -133 11 -230 59 -328 160 -97 100 -144 216 -144 355
0 348 318 596 655 509z m9339 -24 c288 -75 462 -380 374 -658 -54 -171 -195
-310 -363 -356 -61 -17 -237 -14 -287 5 -167 61 -270 157 -334 309 -27 64 -29
79 -29 190 0 138 13 189 74 282 124 190 354 283 565 228z m-3455 -172 c46 -45
126 -156 312 -433 256 -383 441 -561 854 -823 364 -230 375 -240 319 -306 -72
-86 -263 -145 -729 -226 -82 -14 -168 -30 -190 -35 -22 -5 -65 -14 -95 -20
-30 -7 -152 -38 -270 -71 -314 -86 -347 -93 -495 -93 -214 -1 -240 22 -240
214 0 118 11 265 21 281 2 4 8 27 13 51 25 121 43 206 70 336 60 279 127 636
141 743 25 198 38 251 87 342 55 100 124 114 202 40z m-2551 23 c95 -49 152
-217 247 -731 62 -333 69 -364 130 -580 72 -251 95 -369 95 -487 0 -208 -58
-261 -269 -244 -136 12 -207 25 -531 96 -47 10 -96 21 -110 23 -14 2 -115 23
-225 45 -207 43 -435 82 -590 102 -107 14 -193 41 -257 82 -84 52 -99 105 -49
171 36 47 54 61 396 297 329 227 353 247 507 402 145 146 213 238 409 543 138
216 195 295 214 295 3 0 18 -6 33 -14z m3467 -4147 c52 -100 47 -212 -12 -305
-44 -67 -428 -447 -478 -472 -98 -49 -203 -47 -293 5 -23 13 -323 304 -677
659 -529 528 -634 637 -626 652 5 9 183 190 395 402 l386 385 641 -640 c447
-447 647 -654 664 -686z m-2788 919 c216 -216 393 -398 393 -403 0 -22 -1294
-1303 -1340 -1326 -37 -20 -60 -24 -135 -24 -133 0 -144 8 -413 279 -207 209
-231 236 -247 285 -22 66 -17 177 10 236 18 41 1308 1345 1330 1345 5 0 187
-177 402 -392z"/>
<path d="M45260 14169 c-273 -34 -503 -139 -647 -293 -211 -225 -676 -958
-1285 -2026 -1374 -2409 -2295 -4156 -3043 -5775 -401 -867 -705 -1584 -705
-1663 0 -36 13 -48 65 -57 22 -4 81 -27 130 -51 164 -80 248 -77 441 15 146
70 150 73 287 254 691 913 2629 3053 3364 3714 119 107 281 238 288 232 2 -2
-77 -144 -174 -314 -841 -1466 -1264 -2434 -1306 -2990 -4 -52 -2 -137 4 -200
50 -472 297 -718 793 -791 170 -25 478 -15 648 21 312 65 639 213 920 414 96
69 95 69 110 41 25 -47 132 -160 201 -212 541 -412 1422 -228 2384 497 740
558 1606 1588 2048 2435 465 890 517 1514 151 1788 -160 120 -254 147 -475
139 l-155 -6 -11 42 c-22 79 -143 175 -282 222 -201 68 -512 57 -815 -31 -858
-246 -2044 -1241 -2639 -2211 -291 -475 -539 -1144 -592 -1595 l-6 -57 -117
-100 c-397 -338 -690 -491 -868 -452 -151 34 -204 196 -134 415 106 331 486
1144 1139 2436 257 509 371 748 447 937 46 112 48 123 48 213 0 173 -64 312
-174 378 -195 117 -594 158 -805 83 -317 -112 -840 -469 -1350 -922 -313 -277
-783 -766 -1105 -1149 -67 -80 -129 -152 -138 -160 -18 -18 245 500 413 815
744 1392 1528 2698 2952 4920 443 691 429 663 420 840 -10 197 -31 216 -232
214 -71 -1 -159 -5 -195 -10z m3403 -5417 c17 -180 96 -262 252 -262 70 0 93
-32 101 -138 17 -218 -292 -817 -724 -1407 -533 -726 -948 -1142 -1452 -1455
-556 -345 -865 -351 -915 -17 -6 36 -2 53 20 96 50 100 66 189 64 361 l-2 155
38 100 c137 370 438 854 814 1313 400 489 922 914 1437 1171 102 51 335 150
355 151 3 0 9 -31 12 -68z"/>
<path d="M13400 13859 c-622 -55 -1248 -318 -1875 -789 -525 -394 -1156 -1023
-1731 -1725 -599 -732 -958 -1247 -2012 -2885 -626 -973 -1046 -1561 -1404
-1964 l-44 -49 -235 46 c-769 153 -1269 200 -1809 168 -1107 -64 -1786 -382
-1966 -919 -93 -278 -57 -729 78 -984 101 -191 382 -383 692 -473 261 -75 463
-99 856 -99 331 -1 450 7 722 49 765 118 1469 440 2051 939 l87 74 73 -20 c81
-23 335 -95 1122 -322 1050 -301 1292 -362 1840 -461 639 -116 1070 -161 1645
-172 538 -10 936 35 1144 130 l54 25 49 -45 c136 -127 285 -189 483 -200 435
-23 975 297 1655 981 266 269 439 464 847 956 l37 45 -48 -100 c-163 -338
-237 -694 -211 -1020 30 -366 150 -560 439 -705 306 -154 642 -160 1008 -19
272 106 524 272 862 568 58 50 107 91 110 91 3 0 22 -24 41 -53 49 -73 229
-252 328 -326 217 -163 451 -277 697 -340 307 -77 717 -68 1175 28 398 83
1030 295 1406 471 59 28 109 48 111 46 2 -2 -2 -24 -8 -48 -12 -45 -12 -46 36
-129 57 -98 141 -186 205 -216 25 -12 157 -45 294 -74 l248 -53 37 19 c42 23
-3 -63 621 1199 230 465 404 806 409 800 4 -5 60 -108 123 -229 120 -231 336
-607 421 -735 77 -115 393 -506 480 -593 89 -89 202 -175 413 -314 251 -165
392 -206 709 -207 147 -1 209 3 275 17 181 39 394 123 569 227 l54 31 52 -55
c91 -95 246 -180 397 -216 337 -81 800 90 1268 467 278 224 646 570 971 915
77 81 139 144 139 141 0 -8 -779 -1474 -897 -1688 -54 -97 -67 -112 -443 -490
-212 -214 -427 -435 -476 -490 -549 -614 -886 -1193 -985 -1695 -30 -151 -33
-400 -6 -500 82 -304 329 -426 747 -370 161 21 260 73 432 223 268 236 476
515 793 1067 288 500 262 463 486 700 895 949 1970 1939 2999 2763 l235 188 6
-73 c22 -246 169 -506 395 -696 261 -219 608 -348 1104 -409 180 -22 958 -25
1240 -5 1009 73 1830 247 2562 543 1237 499 2081 1194 2318 1906 180 544 82
996 -317 1451 -238 271 -893 658 -1458 859 -272 98 -712 226 -1290 378 -989
259 -1480 462 -1622 668 -66 98 -82 225 -38 313 176 354 1246 1145 2083 1540
863 409 1695 665 2397 738 218 23 245 24 238 12 -4 -6 -35 -48 -70 -93 -141
-187 -184 -289 -164 -398 12 -64 30 -96 74 -129 l27 -20 44 21 c56 27 160 39
521 58 728 39 1153 105 1400 219 80 37 224 137 285 198 23 23 60 81 86 132 55
112 73 206 77 401 2 136 1 142 -26 197 -110 224 -625 419 -1307 495 -197 22
-817 25 -1050 5 -1376 -117 -2950 -648 -4270 -1440 -830 -498 -1423 -1127
-1615 -1714 -207 -636 -56 -1185 434 -1580 404 -326 965 -551 1976 -793 1266
-303 1949 -531 2209 -737 165 -131 204 -259 129 -419 -163 -348 -969 -868
-1812 -1169 -453 -161 -1065 -311 -1491 -364 -362 -45 -773 -54 -1057 -23
-563 63 -1090 241 -1209 409 -50 69 -50 87 -4 178 65 130 50 165 -74 165 -64
0 -81 -5 -169 -47 -109 -52 -258 -140 -277 -163 -19 -23 -30 -18 -30 14 0 16
-7 66 -16 111 -34 183 -86 260 -175 260 -74 0 -105 -21 -309 -206 -1048 -951
-2478 -2214 -2569 -2269 -17 -10 284 584 474 935 488 901 974 1748 2041 3550
339 573 357 613 316 701 -28 63 -137 177 -188 199 -63 27 -264 70 -359 77
-104 7 -135 -3 -236 -79 -119 -89 -237 -242 -556 -718 -341 -509 -716 -963
-1319 -1600 -840 -888 -1692 -1602 -1953 -1637 -75 -10 -89 23 -40 93 58 85
88 163 97 259 9 88 12 96 125 325 143 291 290 569 596 1130 498 912 733 1378
812 1613 29 86 24 190 -13 270 -66 142 -306 318 -437 320 -141 2 -220 -106
-603 -828 -190 -357 -270 -499 -428 -755 -59 -96 -169 -285 -245 -420 -76
-135 -276 -474 -443 -755 -403 -674 -479 -822 -548 -1069 -30 -106 -49 -128
-205 -232 -194 -129 -358 -187 -487 -173 -303 33 -582 287 -841 764 -95 174
-293 628 -279 639 1 2 46 22 98 46 495 220 1357 854 1856 1361 373 381 647
770 752 1069 92 263 56 541 -89 680 -153 147 -414 167 -629 48 -148 -82 -208
-176 -235 -369 -16 -113 -38 -165 -122 -277 -273 -364 -1428 -1292 -2038
-1637 -128 -73 -305 -159 -305 -148 0 12 304 558 1418 2543 1394 2485 1955
3500 2023 3658 64 148 -42 320 -183 298 -22 -4 -88 -32 -146 -64 -145 -78
-199 -101 -395 -168 -214 -72 -281 -114 -401 -251 -48 -54 -106 -127 -130
-163 -102 -151 -708 -1229 -1733 -3080 -1084 -1958 -1673 -3039 -2092 -3837
l-133 -252 -166 -108 c-551 -355 -846 -485 -1437 -632 -615 -153 -1198 -183
-1495 -75 -107 38 -160 72 -240 154 -183 186 -246 410 -209 748 50 466 258
892 650 1337 286 324 657 647 1049 911 440 297 705 413 985 430 92 6 101 5
118 -13 53 -60 24 -146 -116 -354 -236 -348 -256 -390 -238 -518 25 -188 124
-285 317 -312 268 -38 533 123 780 472 291 411 397 735 330 1012 -59 247 -272
442 -584 532 -324 95 -939 21 -1471 -177 -810 -301 -1522 -828 -2038 -1509
-470 -620 -752 -1312 -798 -1964 l-7 -100 -152 -151 c-294 -292 -525 -456
-741 -524 -161 -51 -260 -10 -300 122 -73 248 133 881 633 1938 124 263 153
315 532 970 318 549 466 817 542 977 60 128 61 163 5 276 -64 130 -98 142
-330 118 -281 -30 -513 -113 -638 -228 -140 -130 -344 -432 -559 -828 -158
-291 -337 -526 -839 -1099 -1065 -1217 -1813 -1937 -2100 -2020 -71 -21 -78
-20 -106 9 -47 46 -26 179 68 425 154 402 574 1235 1145 2270 215 390 385 716
433 831 53 128 25 212 -121 359 -110 110 -165 135 -300 135 -97 0 -109 -2
-157 -29 -190 -105 -367 -351 -805 -1119 -111 -194 -282 -491 -381 -662 -100
-170 -216 -373 -260 -450 -112 -199 -412 -803 -485 -977 -109 -257 -256 -729
-277 -894 l-7 -51 -68 -7 c-83 -7 -455 9 -680 30 -865 80 -2106 324 -3635 714
-214 55 -409 105 -433 112 l-43 13 112 150 c276 372 565 794 1279 1865 981
1472 1260 1874 1700 2441 912 1174 1813 1998 2355 2154 241 70 348 5 247 -150
-224 -346 -1246 -1204 -1697 -1426 -116 -57 -118 -57 -133 -24 -45 97 -182 5
-212 -142 -41 -194 0 -373 122 -538 206 -280 458 -347 797 -213 525 207 1408
884 1851 1419 561 676 726 1162 550 1616 -119 310 -348 492 -691 548 -118 19
-372 27 -509 14z m-8618 -8229 c166 -12 510 -48 517 -55 10 -11 -315 -158
-440 -199 -419 -141 -861 -166 -1105 -65 -165 69 -177 182 -26 247 159 68 630
100 1054 72z"/>
<path d="M54015 12715 c-55 -8 -131 -16 -169 -20 -64 -6 -72 -10 -119 -53
-180 -168 -407 -466 -821 -1074 l-127 -187 -42 -5 c-23 -3 -159 -10 -302 -16
-1210 -51 -1138 -45 -1285 -107 -285 -121 -521 -300 -588 -444 -16 -35 -58
-98 -92 -139 -193 -232 -134 -370 195 -462 157 -43 454 -29 1168 58 114 14
212 24 216 22 4 -2 -61 -113 -146 -248 -598 -954 -1297 -2177 -1609 -2815
-331 -679 -500 -1126 -575 -1528 -26 -140 -37 -433 -20 -559 67 -506 369 -793
960 -914 110 -23 142 -26 256 -21 368 15 666 144 1157 502 72 53 134 93 138
88 3 -4 15 -28 25 -53 73 -173 247 -337 439 -411 205 -79 397 -109 751 -116
439 -9 735 41 1206 203 314 108 781 321 984 449 371 234 670 552 787 837 67
166 93 370 64 506 -33 156 -149 356 -275 475 -313 293 -773 455 -2031 713
-440 90 -505 127 -445 250 91 186 636 611 1068 832 326 168 685 299 972 357
205 41 385 57 385 35 0 -17 -40 -91 -78 -144 -92 -130 -96 -218 -13 -270 21
-14 61 -47 88 -74 61 -61 101 -72 258 -72 173 0 301 37 540 157 162 81 269
155 371 258 135 135 188 254 215 479 24 205 -3 377 -76 476 -197 268 -827 337
-1575 170 -779 -173 -1830 -652 -2370 -1080 -58 -45 -168 -146 -245 -224 -346
-348 -530 -689 -553 -1028 -25 -350 82 -584 348 -760 208 -138 416 -213 965
-348 154 -38 408 -100 565 -139 648 -159 786 -234 735 -396 -41 -129 -217
-257 -536 -388 -375 -155 -864 -247 -1312 -247 l-159 0 -59 32 c-75 39 -180
149 -204 212 l-18 46 32 65 c62 125 66 150 65 375 -1 227 -15 327 -60 417 -25
51 -62 83 -98 83 -31 0 -256 -185 -677 -556 -531 -468 -903 -693 -1194 -723
-168 -17 -267 18 -318 112 -20 38 -22 55 -21 182 3 348 83 579 450 1315 420
840 1340 2469 1882 3332 l137 217 40 5 c22 3 171 17 330 31 678 60 1325 127
1403 145 175 41 321 131 367 225 24 49 27 64 23 125 -6 84 -29 126 -104 193
-30 27 -82 83 -116 125 -144 180 -190 214 -310 233 -85 14 -451 6 -728 -15
-96 -7 -176 -12 -177 -12 -1 1 84 139 191 307 383 604 461 745 453 811 -6 46
-52 113 -92 131 -48 23 -296 78 -345 76 -25 -1 -90 -7 -145 -14z"/>
</g>
</svg>
