<?xml version="1.0" standalone="no"?>
<!DOCTYPE svg PUBLIC "-//W3C//DTD SVG 20010904//EN"
 "http://www.w3.org/TR/2001/REC-SVG-20010904/DTD/svg10.dtd">
<svg version="1.0" xmlns="http://www.w3.org/2000/svg"
 width="2577.000000pt" height="2577.000000pt" viewBox="0 0 2577.000000 2577.000000"
 preserveAspectRatio="xMidYMid meet">
<metadata>
Created by potrace 1.16, written by Peter Selinger 2001-2019
</metadata>
<g transform="translate(0.000000,2577.000000) scale(0.100000,-0.100000)"
fill="#000000" stroke="none">
<path d="M18330 25163 c-30 -2 -122 -13 -205 -24 -917 -125 -1751 -569 -2639
-1404 -968 -910 -1573 -2062 -1905 -3625 -120 -567 -151 -829 -251 -2100 -38
-498 -68 -727 -201 -1540 -62 -382 -91 -529 -139 -700 -38 -132 -104 -317
-119 -333 -4 -4 -34 21 -67 55 l-60 63 -27 143 c-188 986 -303 1823 -342 2477
-8 143 -22 348 -30 455 -192 2477 -1136 4408 -2750 5626 -605 457 -1243 746
-1886 853 -224 38 -321 45 -594 45 -449 1 -823 -55 -1240 -185 -602 -188
-1301 -588 -1821 -1040 -259 -226 -707 -688 -959 -989 -682 -817 -1124 -1736
-1239 -2580 -139 -1014 158 -2022 873 -2964 956 -1258 2083 -1998 3686 -2419
711 -187 1249 -264 2460 -352 584 -43 803 -70 1600 -200 345 -57 501 -86 656
-125 128 -32 342 -100 336 -106 -2 -2 -107 1 -233 6 -1443 63 -2982 5 -4164
-156 -1685 -229 -2989 -664 -3839 -1282 -534 -388 -938 -899 -1164 -1472 -200
-508 -252 -1104 -142 -1645 195 -963 850 -1765 1735 -2123 369 -149 676 -206
1110 -206 265 0 329 5 580 46 329 53 828 215 1122 364 28 14 52 24 54 21 2 -2
-12 -41 -31 -87 -153 -363 -274 -854 -305 -1244 -108 -1358 634 -2538 1890
-3004 545 -203 1169 -234 1750 -87 411 104 840 327 1185 615 84 70 339 334
464 480 80 93 289 402 368 545 168 302 308 623 440 1010 53 155 54 158 49 95
-119 -1377 -2 -3069 330 -4775 38 -193 144 -698 149 -703 1 -1 74 27 161 62
87 35 231 90 319 121 741 261 1011 391 1178 564 167 173 174 340 25 587 -207
340 -461 858 -643 1309 -496 1225 -693 2544 -574 3838 l12 128 44 -193 c203
-905 505 -1670 889 -2255 320 -485 765 -892 1259 -1149 1221 -637 2720 -338
3611 721 751 891 864 2164 306 3443 -22 50 -37 92 -33 92 3 0 54 -21 111 -46
350 -155 755 -268 1145 -321 162 -21 639 -25 785 -5 935 127 1691 632 2159
1444 176 306 295 657 358 1058 26 165 26 635 0 800 -88 557 -319 1079 -655
1480 -117 139 -471 484 -589 573 -1040 785 -2697 1241 -4993 1372 -781 44
-2013 40 -2795 -10 -361 -23 -777 -52 -855 -61 l-55 -6 28 30 c15 16 45 34 65
40 73 22 620 123 1029 191 905 151 1297 196 1998 231 1399 70 2757 427 3793
996 584 321 1012 637 1456 1073 734 724 1209 1500 1410 2306 113 455 137 975
66 1460 -119 813 -491 1614 -1104 2375 -200 249 -791 826 -1121 1096 -981 803
-2054 1240 -3020 1232 -110 -1 -225 -3 -255 -5z m-11295 -1808 c196 -50 364
-198 439 -388 136 -344 -69 -745 -430 -837 -385 -99 -760 171 -791 568 -22
295 190 588 479 658 74 17 232 17 303 -1z m11849 -35 c184 -47 330 -166 411
-334 51 -107 65 -167 65 -279 0 -177 -59 -317 -185 -442 -132 -132 -259 -185
-446 -185 -187 0 -333 63 -458 197 -186 198 -226 482 -101 723 137 262 429
393 714 320z m-9665 -760 c187 -45 334 -165 421 -345 138 -286 32 -645 -240
-810 -198 -121 -462 -120 -661 1 -74 45 -186 163 -227 241 -125 237 -86 531
98 727 163 174 381 240 609 186z m7574 -146 c201 -45 352 -166 438 -349 45
-98 59 -160 59 -273 0 -174 -58 -311 -185 -437 -134 -134 -263 -189 -445 -189
-182 0 -311 55 -445 189 -128 127 -185 264 -185 444 0 401 375 702 763 615z
m-11087 -394 c225 -57 402 -233 459 -455 18 -71 21 -233 4 -301 -50 -210 -221
-392 -432 -459 -105 -33 -262 -35 -363 -4 -203 62 -358 216 -430 429 -28 83
-27 271 3 365 102 320 435 507 759 425z m14496 -31 c171 -35 347 -170 426
-326 214 -428 -86 -924 -558 -923 -176 0 -318 58 -441 180 -132 130 -190 268
-190 450 -1 287 184 531 463 611 73 20 220 25 300 8z m-12257 -763 c268 -91
436 -322 436 -600 0 -117 -12 -168 -66 -281 -105 -219 -311 -347 -560 -348
-357 -2 -634 274 -635 634 0 167 63 313 190 441 170 170 412 229 635 154z
m10191 -131 c349 -89 554 -475 435 -818 -113 -325 -479 -505 -801 -393 -107
38 -172 80 -254 167 -109 116 -164 241 -173 394 -25 432 372 757 793 650z
m-13771 -410 c176 -45 341 -179 414 -336 49 -107 65 -173 65 -279 0 -287 -195
-540 -470 -610 -514 -132 -956 391 -736 871 79 172 245 311 427 355 71 18 229
17 300 -1z m17225 -44 c262 -84 440 -328 440 -602 0 -178 -60 -322 -189 -449
-128 -126 -263 -182 -441 -182 -178 0 -313 56 -441 182 -410 405 -113 1097
461 1076 70 -2 127 -11 170 -25z m-11622 -222 c172 -41 344 -179 420 -339 210
-441 -119 -934 -604 -907 -259 15 -489 194 -567 442 -34 107 -31 292 6 394
112 308 431 484 745 410z m5976 -35 c222 -56 404 -237 461 -459 20 -77 20
-232 0 -310 -43 -168 -176 -334 -325 -407 -554 -272 -1124 303 -848 855 77
152 241 281 410 322 75 19 228 18 302 -1z m-9341 -460 c192 -49 358 -204 433
-404 39 -105 41 -287 5 -398 -122 -372 -536 -546 -886 -373 -315 156 -440 544
-277 856 137 262 436 394 725 319z m12832 -139 c218 -55 394 -228 461 -451 25
-81 25 -247 0 -328 -61 -203 -207 -359 -404 -434 -96 -37 -303 -39 -403 -4
-334 115 -514 471 -403 800 69 206 243 368 449 418 71 18 230 17 300 -1z
m-10775 -706 c464 -128 616 -712 274 -1056 -128 -129 -293 -190 -482 -181
-203 11 -381 113 -491 282 -125 192 -135 456 -25 655 46 81 169 206 244 246
141 75 328 96 480 54z m8618 -30 c220 -52 414 -248 466 -469 107 -453 -292
-862 -748 -765 -403 85 -613 529 -428 905 75 155 258 297 422 329 30 6 64 13
75 15 30 7 158 -2 213 -15z m-12001 -434 c157 -37 298 -142 392 -290 90 -143
113 -361 55 -525 -67 -191 -214 -337 -403 -402 -100 -35 -307 -33 -403 4 -198
75 -343 231 -404 434 -42 140 -17 339 59 474 35 62 142 178 203 221 126 87
338 123 501 84z m15480 -150 c292 -69 500 -351 479 -653 -17 -255 -189 -479
-435 -564 -100 -35 -307 -33 -403 4 -102 39 -173 85 -249 165 -162 171 -217
407 -145 626 70 215 226 362 448 421 70 19 227 19 305 1z m-13459 -716 c26 -6
85 -29 132 -52 103 -48 226 -165 277 -262 169 -322 41 -717 -282 -872 -347
-165 -762 15 -878 382 -36 113 -31 292 10 402 40 106 89 178 171 254 75 68
194 131 282 148 30 6 64 13 75 15 30 7 158 -2 213 -15z m11316 -35 c402 -102
597 -547 403 -919 -47 -90 -173 -212 -267 -257 -414 -203 -890 70 -917 527
-18 304 186 579 482 651 72 18 226 17 299 -2z m-4240 -159 c55 -26 108 -91
281 -345 248 -363 323 -469 374 -530 225 -270 426 -446 726 -635 215 -136 489
-317 497 -329 31 -46 -29 -129 -132 -181 -104 -53 -386 -123 -765 -191 -299
-53 -458 -89 -673 -150 -350 -100 -442 -118 -607 -118 -134 -1 -143 0 -197 27
-83 41 -98 77 -98 231 0 152 17 262 95 626 111 516 205 1018 230 1230 11 91
35 171 71 240 48 90 64 109 109 125 51 18 51 18 89 0z m-3025 -20 c113 -58
188 -284 301 -905 61 -334 85 -441 152 -674 82 -287 107 -410 115 -547 10
-194 -17 -281 -101 -327 -65 -35 -406 -11 -619 44 -229 59 -1065 220 -1375
264 -366 52 -496 205 -307 362 38 32 237 172 510 358 257 175 378 272 516 411
186 187 260 288 575 779 114 179 169 250 193 250 7 0 25 -7 40 -15z m4199
-5026 c49 -107 49 -221 1 -325 -26 -57 -502 -544 -580 -595 -66 -42 -175 -64
-253 -50 -121 21 -100 3 -934 835 l-782 781 482 483 483 482 781 -782 c607
-608 786 -793 802 -829z m-3378 1116 l485 -485 -770 -770 c-424 -424 -793
-786 -821 -806 -115 -79 -286 -84 -399 -11 -22 14 -160 146 -307 294 -312 314
-312 313 -313 468 0 175 -59 105 843 1008 433 433 789 787 792 787 3 0 223
-218 490 -485z"/>
</g>
</svg>
